<svg width="127" height="171" viewBox="0 0 127 171" fill="none" xmlns="http://www.w3.org/2000/svg">
<path d="M91.752 17.4648V50.0869L63.5 66.3984L35.249 50.0869V17.4648L63.5 1.1543L91.752 17.4648Z" stroke="#4E945D" stroke-width="2"/>
<path d="M121.475 68.8052V101.427L93.2231 117.739L64.9722 101.427V68.8052L93.2231 52.4946L121.475 68.8052Z" stroke="#4E945D" stroke-width="2"/>
<path d="M91.752 120.146V152.768L63.5 169.079L35.249 152.768V120.146L63.5 103.835L91.752 120.146Z" stroke="#4E945D" stroke-width="2"/>
<path d="M62.0283 68.8052V101.427L33.7764 117.739L5.52539 101.427V68.8052L33.7764 52.4946L62.0283 68.8052Z" stroke="#4E945D" stroke-width="2"/>
<path d="M47.4019 42.7981V58.5315L33.7759 66.3977L20.1509 58.5315V42.7981L33.7759 34.9309L47.4019 42.7981Z" stroke="#4E945D" stroke-width="2"/>
<path d="M47.4019 111.027V126.76L33.7759 134.626L20.1509 126.76V111.027L33.7759 103.16L47.4019 111.027Z" stroke="#4E945D" stroke-width="2"/>
<path d="M106.849 111.702V127.436L93.2227 135.302L79.5977 127.436V111.702L93.2227 103.835L106.849 111.702Z" stroke="#4E945D" stroke-width="2"/>
<path d="M106.849 42.7981V58.5315L93.2227 66.3977L79.5977 58.5315V42.7981L93.2227 34.9309L106.849 42.7981Z" stroke="#4E945D" stroke-width="2"/>
</svg>
