<svg width="1200" height="800" viewBox="0 0 1200 800" xmlns="http://www.w3.org/2000/svg">
  <!-- Grupo superior direito -->
  <g transform="translate(950, 50)">
    <!-- Hexágonos maiores opacos -->
    <polygon points="0,20 30,5 80,5 110,20 110,50 80,65 30,65 0,50" 
             fill="none" stroke="#00d4ff" stroke-width="2.5" opacity="1"/>
    <polygon points="60,60 90,45 140,45 170,60 170,90 140,105 90,105 60,90" 
             fill="none" stroke="#00d4ff" stroke-width="2.5" opacity="1"/>
    <polygon points="120,100 150,85 200,85 230,100 230,130 200,145 150,145 120,130" 
             fill="none" stroke="#00d4ff" stroke-width="2.5" opacity="1"/>
    <polygon points="60,140 90,125 140,125 170,140 170,170 140,185 90,185 60,170" 
             fill="none" stroke="#00d4ff" stroke-width="2.5" opacity="1"/>
    <polygon points="180,140 210,125 260,125 290,140 290,170 260,185 210,185 180,170" 
             fill="none" stroke="#00d4ff" stroke-width="2.5" opacity="1"/>
    
    <!-- Hexágonos menores semi-transparentes -->
    <polygon points="-30,50 -10,40 20,40 40,50 40,70 20,80 -10,80 -30,70" 
             fill="none" stroke="#00d4ff" stroke-width="1.5" opacity="0.3"/>
    <polygon points="30,90 50,80 80,80 100,90 100,110 80,120 50,120 30,110" 
             fill="none" stroke="#00d4ff" stroke-width="1.5" opacity="0.3"/>
    <polygon points="150,10 170,0 200,0 220,10 220,30 200,40 170,40 150,30" 
             fill="none" stroke="#00d4ff" stroke-width="1.5" opacity="0.3"/>
    <polygon points="210,50 230,40 260,40 280,50 280,70 260,80 230,80 210,70" 
             fill="none" stroke="#00d4ff" stroke-width="1.5" opacity="0.3"/>
    <polygon points="240,180 260,170 290,170 310,180 310,200 290,210 260,210 240,200" 
             fill="none" stroke="#00d4ff" stroke-width="1.5" opacity="0.3"/>
    
    <!-- Linhas de conexão -->
    <line x1="80" y1="65" x2="90" y2="60" stroke="#60a5fa" stroke-width="1.5" opacity="0.5"/>
    <line x1="140" y1="105" x2="150" y2="100" stroke="#60a5fa" stroke-width="1.5" opacity="0.5"/>
    <line x1="170" y1="90" x2="180" y2="85" stroke="#60a5fa" stroke-width="1.5" opacity="0.5"/>
    <line x1="140" y1="125" x2="150" y2="115" stroke="#60a5fa" stroke-width="1.5" opacity="0.5"/>
    <line x1="200" y1="145" x2="210" y2="140" stroke="#60a5fa" stroke-width="1.5" opacity="0.5"/>
    
    <!-- Pontos de conexão -->
    <circle cx="80" cy="65" r="3.5" fill="#60a5fa"/>
    <circle cx="90" cy="60" r="3.5" fill="#60a5fa"/>
    <circle cx="140" cy="105" r="3.5" fill="#60a5fa"/>
    <circle cx="170" cy="90" r="3.5" fill="#60a5fa"/>
    <circle cx="210" cy="140" r="3.5" fill="#60a5fa"/>
  </g>
  
  <!-- Grupo inferior esquerdo -->
  <g transform="translate(50, 600)">
    <!-- Hexágonos maiores opacos -->
    <polygon points="0,20 30,5 80,5 110,20 110,50 80,65 30,65 0,50" 
             fill="none" stroke="#00d4ff" stroke-width="2.5" opacity="1"/>
    <polygon points="60,60 90,45 140,45 170,60 170,90 140,105 90,105 60,90" 
             fill="none" stroke="#00d4ff" stroke-width="2.5" opacity="1"/>
    <polygon points="120,100 150,85 200,85 230,100 230,130 200,145 150,145 120,130" 
             fill="none" stroke="#00d4ff" stroke-width="2.5" opacity="1"/>
    <polygon points="60,140 90,125 140,125 170,140 170,170 140,185 90,185 60,170" 
             fill="none" stroke="#00d4ff" stroke-width="2.5" opacity="1"/>
    <polygon points="180,140 210,125 260,125 290,140 290,170 260,185 210,185 180,170" 
             fill="none" stroke="#00d4ff" stroke-width="2.5" opacity="1"/>
    
    <!-- Hexágonos menores semi-transparentes -->
    <polygon points="-30,90 -10,80 20,80 40,90 40,110 20,120 -10,120 -30,110" 
             fill="none" stroke="#00d4ff" stroke-width="1.5" opacity="0.3"/>
    <polygon points="30,130 50,120 80,120 100,130 100,150 80,160 50,160 30,150" 
             fill="none" stroke="#00d4ff" stroke-width="1.5" opacity="0.3"/>
    <polygon points="150,50 170,40 200,40 220,50 220,70 200,80 170,80 150,70" 
             fill="none" stroke="#00d4ff" stroke-width="1.5" opacity="0.3"/>
    <polygon points="240,100 260,90 290,90 310,100 310,120 290,130 260,130 240,120" 
             fill="none" stroke="#00d4ff" stroke-width="1.5" opacity="0.3"/>
    <polygon points="180,200 200,190 230,190 250,200 250,220 230,230 200,230 180,220" 
             fill="none" stroke="#00d4ff" stroke-width="1.5" opacity="0.3"/>
    
    <!-- Linhas de conexão -->
    <line x1="80" y1="65" x2="90" y2="60" stroke="#60a5fa" stroke-width="1.5" opacity="0.5"/>
    <line x1="140" y1="105" x2="150" y2="100" stroke="#60a5fa" stroke-width="1.5" opacity="0.5"/>
    <line x1="110" y1="50" x2="120" y2="55" stroke="#60a5fa" stroke-width="1.5" opacity="0.5"/>
    <line x1="170" y1="140" x2="180" y2="140" stroke="#60a5fa" stroke-width="1.5" opacity="0.5"/>
    
    <!-- Pontos de conexão -->
    <circle cx="80" cy="65" r="3.5" fill="#60a5fa"/>
    <circle cx="110" cy="50" r="3.5" fill="#60a5fa"/>
    <circle cx="140" cy="105" r="3.5" fill="#60a5fa"/>
    <circle cx="170" cy="140" r="3.5" fill="#60a5fa"/>
    <circle cx="90" cy="185" r="3.5" fill="#60a5fa"/>
  </g>
</svg>