<svg width="64" height="134" viewBox="0 0 64 134" fill="none" xmlns="http://www.w3.org/2000/svg">
<path d="M35.0388 31.1925L42.0169 42.4956C42.1144 42.6535 42.166 42.8354 42.166 43.021V54.7837V60.7195M35.0388 31.1925L27.2481 27.3921M35.0388 31.1925L43.7721 19.8285C43.9938 19.5401 44.0414 19.154 43.8963 18.8204L37.4518 4M35.0388 31.1925L30.0999 39.9611C29.9213 40.278 29.5848 40.473 29.2211 40.4703L16.4983 40.3752C16.1346 40.3725 15.8011 40.1725 15.6273 39.8531L10.9166 31.1925M42.166 60.7195H51.279C51.6169 60.7195 51.9319 60.5488 52.1165 60.2658L57.5273 51.9701C57.7168 51.6795 57.7422 51.3115 57.5944 50.9976L51.8206 38.7407M42.166 60.7195V79.4056M27.2481 27.3921H18.904M27.2481 27.3921L30.25 15.1815C30.2928 15.0073 30.288 14.8247 30.236 14.653L28.3182 8.31845M10.9166 31.1925L18.904 27.3921M10.9166 31.1925L3.17528 42.4815C3.06111 42.648 3 42.8452 3 43.0471V54.7837M10.9166 31.1925L3.31136 19.8264C3.11792 19.5373 3.08861 19.1684 3.23397 18.8524L10.0656 4M18.904 27.3921L15.9891 15.2494C15.9371 15.0329 15.9589 14.8053 16.0509 14.6026L18.904 8.31845M42.166 107.836L32.8466 123.412C32.666 123.714 32.3401 123.899 31.9884 123.899H15.3582M42.166 107.836V79.4056M42.166 107.836L56.9327 112.628C57.4374 112.791 57.7264 113.321 57.591 113.834L53.1565 130.644M42.166 79.4056H49.4573C49.6897 79.4056 49.9148 79.3247 50.094 79.1768L54.9318 75.1828C55.4037 74.7933 56.1115 74.915 56.4262 75.4397L60.5041 82.2416M15.3582 110.084H27.779C28.0817 110.084 28.3682 109.946 28.558 109.71L34.313 102.559C34.456 102.381 34.5339 102.16 34.5339 101.932V51.5026" stroke="url(#paint0_linear_484_173)" stroke-width="5" stroke-linecap="square"/>
<defs>
<linearGradient id="paint0_linear_484_173" x1="31.752" y1="4" x2="31.752" y2="130.644" gradientUnits="userSpaceOnUse">
<stop/>
<stop offset="1" stop-color="#F27E14"/>
</linearGradient>
</defs>
</svg>
